<svg xmlns="http://www.w3.org/2000/svg" width="20.614" height="14.135" viewBox="0 0 20.614 14.135">
  <defs>
    <style>
      .cls-1 {
        fill: #6eba6e;
      }
    </style>
  </defs>
  <path id="路径_615" data-name="路径 615" class="cls-1" d="M140.275,248.651v-8.54a1.178,1.178,0,0,0-1.178-1.178H126.14a1.178,1.178,0,0,0-1.178,1.178v8.54l-2.65,3.239v.294a.883.883,0,0,0,.883.883h18.847a.883.883,0,0,0,.883-.883v-.294Zm-9.718,2.65.589-.883h2.945l.589.883Zm8.835-3.828a.3.3,0,0,1-.294.294H126.14a.3.3,0,0,1-.294-.294v-7.362a.3.3,0,0,1,.294-.294H139.1a.3.3,0,0,1,.294.294Zm-2.356-4.859a.733.733,0,0,1-.894.718l-1.565,2.151a.728.728,0,0,1,.1.37.736.736,0,1,1-1.391-.329l-1.82-2.2a.681.681,0,0,1-.313.009l-1.583,2.151a.738.738,0,1,1-.473-.351L130.671,243a.737.737,0,1,1,1.266-.036l1.807,2.182a.716.716,0,0,1,.2-.031.735.735,0,0,1,.158.018l1.565-2.151a.728.728,0,0,1-.1-.37.736.736,0,0,1,1.472,0Z" transform="translate(-122.312 -238.933)"/>
</svg>
