<svg xmlns="http://www.w3.org/2000/svg" width="16.995" height="16.995" viewBox="0 0 16.995 16.995">
  <defs>
    <style>
      .cls-1 {
        fill: #333;
      }
    </style>
  </defs>
  <path id="路径_623" data-name="路径 623" class="cls-1" d="M41.288,35.711a.854.854,0,1,1,1.707,0v5.577A1.707,1.707,0,0,1,41.288,43H27.707A1.707,1.707,0,0,1,26,41.288V27.707A1.707,1.707,0,0,1,27.707,26h5.577a.854.854,0,0,1,0,1.707H27.707V41.288H41.288Zm.059-6.826-5.818,5.806A.865.865,0,0,1,34.3,33.47l5.838-5.825h-2.9a.822.822,0,1,1,0-1.645H41.43A1.564,1.564,0,0,1,43,27.562v4.176a.824.824,0,0,1-1.648,0Z" transform="translate(-26 -26)"/>
</svg>
